<svg width="40" height="40" viewBox="0 0 40 40" fill="none" xmlns="http://www.w3.org/2000/svg">
<circle cx="20" cy="20" r="20" fill="#E8A94C"/>
<path d="M26.7918 24.0845H12.7085" stroke="black" stroke-width="1.55" stroke-linejoin="round"/>
<path d="M24.0833 12.1678H15.4167M16.5 12.7094V18.9494C16.5003 19.4667 16.3154 19.967 15.9789 20.3599L10.52 26.7256C10.1839 27.1186 9.99944 27.6189 10 28.1361V28.4178C10 28.9924 10.2283 29.5435 10.6346 29.9498C11.0409 30.3561 11.592 30.5844 12.1667 30.5844H27.3333C27.908 30.5844 28.4591 30.3561 28.8654 29.9498C29.2717 29.5435 29.5 28.9924 29.5 28.4178V28.1361C29.5 27.6186 29.3147 27.1183 28.9778 26.7256L23.5211 20.3599C23.1846 19.967 22.9997 19.4667 23 18.9494V12.7094M19.75 17.5953L19.7608 17.5833M18.6667 10.0119L18.6775 10" stroke="black" stroke-width="1.55" stroke-linecap="round" stroke-linejoin="round"/>
</svg>
