<svg width="40" height="40" viewBox="0 0 40 40" fill="none" xmlns="http://www.w3.org/2000/svg">
<circle cx="20" cy="20" r="20" fill="#E8A94C"/>
<path d="M21.091 17.3939C21.091 17.3939 22.0153 15.5455 22.0153 13.697C22.0153 11.8485 20.1668 10 20.1668 10C20.1668 10 18.3183 11.8485 18.3183 13.697C18.3183 15.5455 19.2425 17.3939 19.2425 17.3939M20.1668 22.9394C20.9021 22.9394 21.6074 22.6473 22.1274 22.1273C22.6474 21.6073 22.9395 20.902 22.9395 20.1667C22.9395 19.4313 22.6474 18.726 22.1274 18.206C21.6074 17.6861 20.9021 17.3939 20.1668 17.3939C19.4314 17.3939 18.7261 17.6861 18.2062 18.206C17.6862 18.726 17.394 19.4313 17.394 20.1667C17.394 20.902 17.6862 21.6073 18.2062 22.1273C18.7261 22.6473 19.4314 22.9394 20.1668 22.9394Z" stroke="black" stroke-width="1.2" stroke-miterlimit="1.5" stroke-linecap="round" stroke-linejoin="round"/>
<path d="M17.3939 19.2423C17.3939 19.2423 15.5455 18.3181 13.697 18.3181C11.8485 18.3181 10 20.1665 10 20.1665C10 20.1665 11.8485 22.015 13.697 22.015C15.5455 22.015 17.3939 21.0908 17.3939 21.0908M21.0909 22.9393C21.0909 22.9393 22.0151 24.7877 22.0151 26.6362C22.0151 28.4847 20.1667 30.3332 20.1667 30.3332C20.1667 30.3332 18.3182 28.4847 18.3182 26.6362C18.3182 24.7877 19.2424 22.9393 19.2424 22.9393M22.9394 19.2423C22.9394 19.2423 24.7879 18.3181 26.6364 18.3181C28.4848 18.3181 30.3333 20.1665 30.3333 20.1665C30.3333 20.1665 28.4848 22.015 26.6364 22.015C24.7879 22.015 22.9394 21.0908 22.9394 21.0908M18.8598 17.5528C18.8598 17.5528 18.2063 15.5915 16.8985 14.2847C15.5917 12.9778 12.9779 12.9778 12.9779 12.9778C12.9779 12.9778 12.9779 15.5915 14.2848 16.8993C15.5917 18.2062 17.5529 18.8597 17.5529 18.8597M17.5529 21.4734C17.5529 21.4734 15.5917 22.1269 14.2848 23.4347C12.9779 24.7415 12.9779 27.3553 12.9779 27.3553C12.9779 27.3553 15.5917 27.3553 16.8985 26.0484C18.2063 24.7415 18.8598 22.7803 18.8598 22.7803M22.7813 21.4734C22.7813 21.4734 24.7407 22.1269 26.0485 23.4347C27.3554 24.7415 27.3554 27.3553 27.3554 27.3553C27.3554 27.3553 24.7417 27.3553 23.4348 26.0484C22.127 24.7415 21.4735 22.7803 21.4735 22.7803M21.4735 17.5528C21.4735 17.5528 22.127 15.5915 23.4348 14.2847C24.7417 12.9778 27.3554 12.9778 27.3554 12.9778C27.3554 12.9778 27.3554 15.5915 26.0485 16.8993C24.7417 18.2062 22.7804 18.8597 22.7804 18.8597" stroke="black" stroke-width="1.2" stroke-miterlimit="1.5" stroke-linecap="round" stroke-linejoin="round"/>
</svg>
