<svg width="40" height="40" viewBox="0 0 40 40" fill="none" xmlns="http://www.w3.org/2000/svg">
<circle cx="20" cy="20" r="20" fill="#E8A94C"/>
<path d="M30 17.8621C30.0034 19.4009 29.4106 20.8811 28.346 21.9922C25.9049 24.5232 23.5369 27.1622 21.0059 29.6003C20.4249 30.1503 19.5039 30.1303 18.9489 29.5553L11.6538 21.9932C9.44874 19.7071 9.44874 16.0171 11.6538 13.732C12.1749 13.185 12.8017 12.7495 13.4962 12.452C14.1906 12.1544 14.9383 12.001 15.6938 12.001C16.4493 12.001 17.197 12.1544 17.8915 12.452C18.5859 12.7495 19.2127 13.185 19.7339 13.732L19.9999 14.006L20.2649 13.732C20.7871 13.1863 21.4141 12.7516 22.1083 12.454C22.8025 12.1564 23.5496 12.002 24.3049 12C25.8249 12 27.278 12.624 28.345 13.732C29.41 14.8429 30.0032 16.3232 30 17.8621Z" stroke="black" stroke-width="1.5" stroke-linejoin="round"/>
</svg>
